<?xml version="1.0" encoding="UTF-8"?>
<svg width="64" height="64" viewBox="0 0 64 64" xmlns="http://www.w3.org/2000/svg">
  <!-- Outline uses round joins for readability at tiny sizes -->
  <g stroke="#3b2c12" stroke-width="2.75" stroke-linecap="round" stroke-linejoin="round">
    <!-- body -->
    <circle cx="26" cy="40" r="16" fill="#ffd54d"/>
    <!-- head -->
    <circle cx="38" cy="26" r="14" fill="#ffd54d"/>
    <!-- tuft -->
    <path d="M38,13c2,4 4,6 6,9 -5,-3 -8,-3 -12,-2 2,-3 3,-5 6,-7z" fill="#ffd54d"/>
    <!-- wing -->
    <path d="M41,41c8,-2 12,-9 12,-15 0,-1 -1,-2 -3,-1 -5,2 -9,2 -14,1 2,5 3,10 5,15z" fill="#ffd54d"/>
    <!-- eye dots -->
    <circle cx="34" cy="26" r="2.3" fill="#2b2b2b"/>
    <circle cx="42" cy="27" r="2.3" fill="#2b2b2b"/>
    <!-- beak -->
    <path d="M38,30c2.8,0 6.2,-2.3 6.2,-4.3 0,-1.6 -3,-2.6 -6.2,-2.6 -3.2,0 -6.2,1 -6.2,2.6 0,2 3.4,4.3 6.2,4.3z" fill="#f39c12"/>
    <path d="M33,25.7c3.3,2.2 6.7,2.2 10,0" fill="none"/>
    <!-- legs + feet -->
    <path d="M24,54c-0.4,2 -1.2,3.6 -4.2,5.2 2.6,0.4 4.6,0.4 6.8,-0.4 -1.2,1.6 -2.6,2.6 -3.8,3.4 2.6,0 4.6,-0.4 6.2,-1.6" fill="none"/>
    <path d="M30,54c0.4,2 1.2,3.6 4.2,5.2 -2.6,0.4 -4.6,0.4 -6.8,-0.4 1.2,1.6 2.6,2.6 3.8,3.4 -2.6,0 -4.6,-0.4 -6.2,-1.6" fill="none"/>
    <path d="M18.5,60.5c2,0.4 4.6,0 7,-0.8" fill="none" stroke="#e67e22" stroke-width="2.75"/>
    <path d="M33.5,60.5c-2,0.4 -4.6,0 -7,-0.8" fill="none" stroke="#e67e22" stroke-width="2.75"/>
  </g>
</svg>
